<svg width="28" height="28" viewBox="0 0 28 28" fill="none" xmlns="http://www.w3.org/2000/svg">
<path fill-rule="evenodd" clip-rule="evenodd" d="M8.637 4C5.422 4 3 6.393 3 9.455C3 11.302 4.23 13.598 6.446 16.232C8.472 18.64 11.179 21.169 14.067 23.678C16.948 21.171 19.623 18.644 21.617 16.238C23.795 13.607 25 11.307 25 9.454C25 6.368 22.686 4 19.498 4C17.735 4 15.958 4.815 14.822 6.121C14.7281 6.22891 14.6122 6.31544 14.482 6.37473C14.3519 6.43402 14.2105 6.4647 14.0675 6.4647C13.9245 6.4647 13.7831 6.43402 13.653 6.37473C13.5228 6.31544 13.4069 6.22891 13.313 6.121C12.176 4.815 10.4 4 8.637 4ZM1 9.455C1 5.236 4.37 2 8.637 2C10.617 2 12.589 2.763 14.067 4.054C15.548 2.763 17.518 2 19.498 2C23.793 2 27 5.265 27 9.455C27 12.061 25.376 14.835 23.157 17.513C20.903 20.234 17.867 23.05 14.72 25.758C14.5385 25.9143 14.307 26.0002 14.0675 26.0002C13.828 26.0002 13.5965 25.9143 13.415 25.758C10.271 23.053 7.202 20.238 4.915 17.519C2.665 14.845 1 12.068 1 9.455Z" fill="#CB11AB"/>
<path d="M13.6875 6.4375C12.7746 6.21483 11.8789 5.93764 10.9792 5.66667C10.3714 5.48365 9.73059 5.32016 9.15972 5.03473C8.70277 4.80625 8.10684 4.20955 7.54861 4.32639C7.25696 4.38743 7.02964 4.60866 6.78472 4.76389C6.50515 4.94109 6.20669 5.04216 5.92361 5.20139C5.62594 5.36883 5.14226 5.53063 4.9375 5.82639C4.13749 6.98197 4.48426 8.34453 4.67361 9.65278C4.7961 10.4991 5.14922 11.3737 5.54167 12.1319C6.02758 13.0708 6.23153 14.1192 6.625 15.0972C6.91748 15.8242 7.35417 16.5437 7.83333 17.1597C7.93344 17.2884 8.07835 17.4105 8.21528 17.5C8.33545 17.5786 8.46906 17.6252 8.59722 17.6875C8.63911 17.7079 8.73695 17.7942 8.72222 17.75C8.69579 17.6707 8.54159 17.5254 8.49306 17.4722C8.17023 17.1187 7.81835 16.7956 7.50694 16.4306C6.97037 15.8016 6.51653 15.1296 5.92361 14.5486C5.29663 13.9343 4.6527 13.4929 4.25 12.6875C4.01445 12.2164 4.07089 11.6949 4.13889 11.1736C4.20297 10.6823 4.3125 10.196 4.3125 9.70139C4.3125 9.46133 4.05688 9.5 3.875 9.5" stroke="#CB11AB" stroke-width="3" stroke-linecap="round"/>
<path d="M8.9375 17.5625C9.22385 18.1216 9.52648 18.7306 10.0347 19.1215C10.5427 19.5123 11.2232 19.6298 11.7951 19.9028C12.2547 20.1221 12.7313 20.395 13.0764 20.7639C13.4711 21.1858 13.832 21.7095 14.3403 22C14.6057 22.1517 14.2987 22.4165 14.25 22.5625" stroke="#CB11AB" stroke-width="3" stroke-linecap="round"/>
<path d="M14.6875 21.875C15.421 21.0682 16.5191 20.7982 17.4097 20.2153C18.0051 19.8256 18.7411 19.4147 19.1528 18.816C19.7344 17.97 20.1375 17.0179 20.8125 16.2465C21.1843 15.8216 21.5527 15.4111 21.9062 14.9653C22.1819 14.6177 22.386 14.2063 22.6528 13.8472C22.8861 13.5331 23.0621 13.2441 23.1875 12.875C23.3258 12.4676 23.4737 12.0767 23.5938 11.6632C23.6695 11.4021 23.7104 11.0838 23.8438 10.8437C23.9231 10.7009 23.8872 10.4729 23.9375 10.3125C24.0078 10.0884 24.0625 9.81868 24.0625 9.58333C24.0625 8.91898 24.0625 8.25463 24.0625 7.59028C24.0625 7.29501 23.7764 7.00264 23.6632 6.73264C23.5391 6.43665 23.4599 6.46519 23.2083 6.36458C22.5973 6.12016 21.9634 5.92466 21.3264 5.75C20.82 5.61114 20.3206 5.37695 19.8403 5.15278C19.2712 4.88721 18.8776 4.9701 18.2778 5.15625C17.9475 5.25873 17.6262 5.3934 17.2847 5.45139C17.0101 5.49802 16.7124 5.46307 16.4514 5.5625C15.9542 5.75189 15.6782 5.97695 15.4028 6.40972C15.2219 6.69396 14.9802 7.05952 14.875 7.375" stroke="#CB11AB" stroke-width="3" stroke-linecap="round"/>
<path d="M13.625 8.6875C12.4152 8.36105 11.1869 8.16477 9.99308 7.76042C9.34024 7.53929 8.70205 7.09003 8.03128 6.94097C7.21454 6.75948 7.13536 7.49523 6.89933 8.10069C6.73439 8.52381 6.55652 8.85608 6.56253 9.3125C6.57496 10.2574 6.87932 11.0982 7.2778 11.9444C7.79861 13.0504 8.25271 14.1998 8.79864 15.2917C9.08414 15.8627 9.53881 16.1922 10.1042 16.4653C11.2662 17.0265 12.4161 17.6853 13.6181 18.1528C14.0944 18.338 14.7714 18.1095 15.2153 17.9688C15.9252 17.7436 16.5173 17.3021 17.1667 16.9479C17.1818 16.9397 17.5494 16.7199 17.5209 16.8056C17.4007 17.1662 16.9726 17.5109 16.6875 17.7326C16.1231 18.1716 15.421 18.3856 14.8229 18.7743C14.6919 18.8595 14.504 18.9443 14.4375 19.0938C14.3176 19.3636 15.0445 19.3013 15.1597 19.2708C15.6566 19.1396 16.018 18.6086 16.3125 18.2326C16.7421 17.6842 17.0791 17.0784 17.4931 16.5208C18.3351 15.3868 19.8141 14.8398 20.5139 13.6111C20.937 12.8684 21.2624 12.1347 21.4688 11.309C21.6161 10.7197 21.2748 9.78554 21.0278 9.24653C20.7332 8.60386 20.0234 8.48209 19.6528 7.85417C19.5536 7.68607 19.5084 7.51669 19.375 7.375C19.3363 7.33387 20.325 7.57939 20.5139 7.625C21.2358 7.79925 22.0078 8.125 22.75 8.125C23.4339 8.125 21.3918 7.89993 20.7084 7.92361C19.9556 7.9497 19.2301 7.9259 18.5 8.125" stroke="#CB11AB" stroke-width="3" stroke-linecap="round"/>
<path d="M18.5 8.125C17.5875 8.125 16.6734 8.332 15.7639 8.1875C15.1934 8.09687 14.6146 7.98105 14.0417 8.13889C13.4646 8.29788 13.0064 8.70528 12.5208 9.02778C11.9188 9.42759 11.2881 9.75138 10.5868 9.90972C10.2246 9.99152 9.8759 10 9.50696 10C9.16433 10 9.26392 10.2723 9.24307 10.5382C9.20597 11.0112 9.02846 11.4286 9.22571 11.8854C9.31666 12.096 9.43459 12.3093 9.48612 12.5347C9.49834 12.5882 9.02371 11.8848 8.96529 11.7778C8.7039 11.299 8.25001 10.6578 8.25001 10.0903C8.25001 9.75012 8.18253 9.44013 8.1389 9.10417C8.13422 9.0681 8.06946 8.65733 8.06946 8.93056C8.06946 9.51985 8.16259 10.1184 8.27779 10.6944C8.54858 12.0484 8.90007 13.1917 9.79515 14.2778C10.3565 14.9589 11.0973 15.6852 12.007 15.8368C12.4234 15.9062 12.8575 15.8715 13.2778 15.8889C13.8516 15.9127 14.4193 15.9531 14.9931 15.8993C15.6133 15.8412 16.356 15.7587 16.8924 15.4063C17.6734 14.893 17.6034 13.8786 17.8403 13.0694C17.9732 12.6155 18.1364 12.1694 18.309 11.7292C18.3627 11.5924 18.5195 11.3435 18.5 11.1875C18.4434 10.7345 16.4048 10.836 16.0833 10.8125C14.8086 10.7194 13.6548 10.8322 12.4445 11.2778C11.9229 11.4698 10.7016 11.8597 10.8229 12.6076C10.8842 12.9855 11.2011 13.1881 11.5139 13.3611C12.0737 13.6709 12.6619 13.9454 13.2431 14.2118C14.492 14.7842 15.5486 14.8088 16.757 14.1146C17.7473 13.5457 18.4998 12.7303 19.1771 11.8194C19.38 11.5466 19.6794 11.2025 19.6458 10.8333C19.6066 10.4019 19.2686 10.0306 18.9167 9.8125C17.9433 9.2093 16.5883 9.0846 15.4722 9.22917C14.78 9.31884 13.8536 9.43901 13.3472 9.97917C12.8232 10.5381 12.5549 11.2129 12.5625 11.9861C12.5737 13.1126 14.4958 13.1559 15.2778 13.1806C16.2408 13.2109 17.1981 13.1828 17.8368 12.3785C18.233 11.8796 18.0253 11.7537 17.4653 11.7188C16.3346 11.6481 15.249 11.8782 14.1736 12.2153C14.0091 12.2668 13.5221 12.4097 13.6945 12.4097C13.9182 12.4097 14.1216 12.283 14.3125 12.1875" stroke="#CB11AB" stroke-width="3" stroke-linecap="round"/>
</svg>
